{"title":"Pacific Rim (2013) HDCAM NEW SOURCE XViD - SAF","uid":8806511,"size":1478750208,"categoryP":"video","categoryS":"movies","magnet":"?xt=urn:btih:fb2a663ae4c86c45e1b85b46750265ef3b6af744&amp;dn=Pacific+Rim+%282013%29+HDCAM+NEW+SOURCE+XViD+-+SAF&amp;tr=udp%3A%2F%2Ftracker.openbittorrent.com%3A80&amp;tr=udp%3A%2F%2Fopen.demonii.com%3A1337&amp;tr=udp%3A%2F%2Ftracker.coppersurfer.tk%3A6969&amp;tr=udp%3A%2F%2Fexodus.desync.com%3A6969","seeders":1,"leechers":0,"uploader":"tykoon123","files":-1,"time":1376345265,"description":" &lt;a href=&quot;http://i.imgur.com/HNuNE7U.jpg&quot; rel=&quot;nofollow&quot; target=&quot;_NEW&quot;&gt;http://i.imgur.com/HNuNE7U.jpg&lt;/a&gt;\n\nInfo:\nFormat : AVI\nFormat/Info : Audio Video Interleave\nFile size : 1.37 GiB\nDuration : 2h 1mn\nOverall bit rate : 1 611 Kbps\nWriting application : VirtualDubMod 1.5.10.2 (build 2540/release)\nWriting library : VirtualDubMod build 2540/release\n\nVideo\nID : 0\nFormat : MPEG-4 Visual\nFormat profile : Advanced Simple@L5\nFormat settings, BVOP : 2\nFormat settings, QPel : No\nFormat settings, GMC : No warppoints\nFormat settings, Matrix : Default (H.263)\nMuxing mode : Packed bitstream\nCodec ID : XVID\nCodec ID/Hint : XviD\nDuration : 2h 1mn\nBit rate : 1 478 Kbps\nWidth : 704 pixels\nHeight : 320 pixels\nDisplay aspect ratio : 2.2:1\nFrame rate : 29.970 fps\nColor space : YUV\nChroma subsampling : 4:2:0\nBit depth : 8 bits\nScan type : Progressive\nCompression mode : Lossy\nBits/(Pixel*Frame) : 0.219\nStream size : 1.25 GiB (92%)\nWriting library : XviD 64\n\nAudio\nID : 1\nFormat : MPEG Audio\nFormat version : Version 1\nFormat profile : Layer 3\nCodec ID : 55\nCodec ID/Hint : MP3\nDuration : 1h 54mn\nBit rate mode : Constant\nBit rate : 128 Kbps\nChannel(s) : 2 channels\nSampling rate : 48.0 KHz\nCompression mode : Lossy\nStream size : 105 MiB (8%)\nAlignment : Aligned on interleaves\nInterleave, duration : 35 ms (1.06 video frame)\nInterleave, preload duration : 504 ms\nWriting library : LAME3.98.4\n\nSource:\nAudio...Thanks :)\nVideo...Thanks :)\n\n\n","torrent":{"xt":"urn:btih:fb2a663ae4c86c45e1b85b46750265ef3b6af744","amp;dn":"Pacific+Rim+%282013%29+HDCAM+NEW+SOURCE+XViD+-+SAF","amp;tr":["udp%3A%2F%2Ftracker.openbittorrent.com%3A80","udp%3A%2F%2Fopen.demonii.com%3A1337","udp%3A%2F%2Ftracker.coppersurfer.tk%3A6969","udp%3A%2F%2Fexodus.desync.com%3A6969"],"infoHash":"fb2a663ae4c86c45e1b85b46750265ef3b6af744","infoHashBuffer":{"type":"Buffer","data":[251,42,102,58,228,200,108,69,225,184,91,70,117,2,101,239,59,106,247,68]},"announce":[],"urlList":[]}}